<?xml version="1.0" standalone="no"?>
<!DOCTYPE svg PUBLIC "-//W3C//DTD SVG 20010904//EN"
 "http://www.w3.org/TR/2001/REC-SVG-20010904/DTD/svg10.dtd">
<svg version="1.0" xmlns="http://www.w3.org/2000/svg"
 width="275.000000pt" height="275.000000pt" viewBox="0 0 275.000000 275.000000"
 preserveAspectRatio="xMidYMid meet">
<metadata>
Created by potrace 1.11, written by Peter Selinger 2001-2013
</metadata>
<g transform="translate(0.000000,275.000000) scale(0.100000,-0.100000)"
fill="#000000" stroke="none">
<path d="M1320 2521 c-110 -23 -188 -115 -174 -208 5 -32 1 -60 -12 -100 l-19
-55 28 -23 c20 -15 30 -33 32 -59 6 -63 39 -84 77 -49 10 9 21 14 24 10 3 -3
-4 -43 -15 -88 -12 -46 -21 -88 -21 -95 0 -7 15 -14 33 -16 26 -2 33 -8 35
-28 7 -63 12 -71 40 -68 25 3 27 0 30 -35 3 -32 6 -36 25 -32 62 13 87 9 87
-15 0 -25 20 -27 21 -2 1 11 4 8 8 -8 6 -19 13 -24 33 -22 14 1 31 -4 38 -13
16 -19 50 -2 50 25 0 24 -15 26 -24 5 -4 -12 -10 -14 -25 -5 -11 6 -26 9 -33
8 -6 -2 -14 6 -16 16 -2 11 -10 25 -17 32 -9 9 -10 28 -4 71 28 196 41 397 29
463 -3 20 -9 -38 -13 -135 -7 -145 -28 -334 -44 -385 -4 -13 -6 -13 -17 2 -11
15 -13 15 -24 -3 -7 -10 -19 -19 -28 -19 -14 0 -16 9 -10 68 11 126 10 416 -3
420 -12 4 -13 -4 -11 -173 0 -60 -2 -138 -6 -172 -6 -58 -8 -63 -30 -63 -23 0
-24 2 -23 73 4 202 -2 427 -11 427 -6 0 -10 -75 -10 -205 l0 -205 -26 0 c-24
0 -26 3 -20 28 18 80 25 142 31 290 5 113 4 162 -3 162 -6 0 -12 -17 -14 -37
l-3 -38 -41 60 c-56 82 -57 89 -28 124 42 50 160 68 230 35 43 -20 91 -77 105
-124 6 -19 15 -114 20 -210 11 -229 28 -402 41 -417 14 -18 38 -16 38 2 0 9 7
18 15 21 8 4 15 13 15 21 0 11 -7 10 -30 -7 -23 -16 -31 -18 -34 -8 -6 19 -17
188 -12 188 2 0 14 -29 27 -65 20 -58 39 -84 39 -54 0 5 5 7 10 4 16 -10 12 5
-15 51 -36 62 -67 193 -70 304 -5 161 -33 237 -107 294 -27 20 -107 48 -128
45 -3 -1 -21 -4 -40 -8z m-61 -254 c16 -28 21 -55 21 -109 0 -64 -3 -75 -27
-100 -39 -40 -56 -37 -51 10 5 39 -23 92 -49 92 -17 0 -16 9 3 56 11 26 14 53
10 82 -3 24 -1 52 5 64 10 19 12 18 39 -19 15 -21 37 -55 49 -76z"/>
<path d="M1204 2295 c21 -16 32 -13 21 4 -3 6 -14 11 -23 11 -15 -1 -15 -2 2
-15z"/>
<path d="M1187 2273 c-4 -3 -7 -15 -7 -25 0 -20 25 -24 50 -8 13 8 12 11 -5
24 -23 17 -29 19 -38 9z"/>
<path d="M1175 1839 c-45 -33 -76 -75 -88 -121 -7 -29 -7 -42 2 -47 8 -5 8
-22 0 -67 -10 -50 -9 -192 2 -369 4 -62 -3 -83 -38 -122 -21 -22 -60 -67 -87
-101 -42 -52 -55 -62 -95 -71 -55 -12 -102 -29 -81 -30 8 -1 31 3 50 9 25 7
36 7 41 -2 10 -16 76 47 134 128 61 85 70 91 97 68 18 -16 48 -72 48 -89 0
-15 -22 10 -40 46 -21 41 -46 54 -37 19 3 -11 1 -20 -3 -20 -5 0 -37 -57 -71
-127 -51 -103 -74 -139 -121 -185 -32 -31 -58 -62 -58 -69 0 -7 25 14 55 47
l55 59 -2 -145 c-1 -113 2 -154 14 -187 16 -41 16 -41 -23 -132 -21 -50 -39
-96 -39 -101 0 -12 189 -14 206 -2 5 4 15 23 22 42 9 27 11 29 8 8 -5 -45 6
-52 85 -50 40 1 76 7 80 13 5 8 8 8 13 0 4 -6 25 -11 47 -11 31 0 45 6 64 27
l24 28 1 -27 c0 -26 1 -26 65 -26 42 0 65 4 65 12 0 7 3 6 9 -2 5 -8 23 -12
47 -10 37 3 39 5 45 43 l5 40 5 -35 c3 -29 9 -35 36 -41 35 -7 46 -2 56 24 5
14 -9 27 -66 64 -39 25 -88 63 -108 84 -36 39 -69 51 -69 26 0 -8 -10 -22 -22
-33 l-21 -19 6 31 c8 41 -2 77 -19 70 -20 -8 -44 4 -44 21 0 11 -7 14 -27 10
-15 -3 -36 -1 -46 5 -26 13 -34 2 -14 -20 11 -12 17 -35 16 -63 l0 -44 -15 55
c-16 59 -42 98 -30 45 4 -16 8 -50 10 -75 2 -25 1 -33 -1 -17 -5 33 -20 35
-33 4 -8 -19 -9 -18 -9 14 -1 45 -10 54 -28 29 -10 -13 -12 -31 -8 -51 l7 -31
-26 17 c-18 12 -38 16 -65 12 -49 -6 -68 9 -43 36 16 19 16 20 -3 15 -11 -3
-28 -9 -37 -13 -24 -10 -23 10 2 37 24 26 25 38 5 38 -8 0 -15 3 -15 6 0 6 57
78 86 108 31 32 64 91 64 114 0 11 9 30 20 43 l20 24 -6 -38 c-8 -48 17 -83
48 -66 22 12 15 31 -10 22 -12 -4 -14 -3 -7 5 6 5 18 12 28 14 10 1 18 8 17
13 -1 6 -9 8 -18 7 -9 -2 -21 -5 -26 -5 -10 -2 -15 64 -5 78 3 6 10 31 13 57
5 35 15 54 35 70 15 13 34 38 41 56 8 20 18 31 26 28 7 -3 11 0 8 7 -7 20 22
54 36 41 8 -8 5 -21 -14 -48 -50 -74 -43 -127 18 -126 56 1 97 -12 112 -36 9
-13 39 -36 67 -52 57 -32 85 -57 165 -151 29 -33 57 -61 62 -61 5 0 38 -22 74
-49 36 -27 73 -54 83 -59 16 -10 14 -17 -25 -94 -50 -99 -53 -117 -14 -90 15
12 42 53 62 96 19 41 43 78 53 81 23 9 22 24 -2 18 -52 -13 -207 99 -240 172
-20 45 -71 119 -98 141 -7 6 -25 29 -39 50 -25 37 -26 38 -3 19 13 -11 30 -26
38 -34 10 -9 16 -10 19 -3 6 18 -47 80 -96 114 -40 27 -43 33 -38 62 7 39 -9
69 -24 46 -24 -36 -13 -77 50 -180 21 -35 37 -68 34 -72 -7 -11 -75 31 -110
69 -20 21 -41 33 -57 33 -14 0 -29 4 -32 10 -11 17 24 75 78 127 93 92 239
118 380 69 37 -13 67 -20 67 -15 0 15 -93 77 -150 99 -32 13 -89 24 -137 27
l-82 6 29 57 c16 32 44 70 62 85 26 22 27 24 6 11 -15 -9 -29 -16 -32 -16 -2
0 6 28 20 61 13 34 27 77 30 96 8 40 23 51 124 88 83 30 121 47 117 51 -5 5
-142 -43 -184 -64 l-42 -22 -6 48 c-7 55 -32 129 -46 138 -19 11 -20 -4 -5
-41 9 -21 16 -65 16 -99 0 -57 -5 -71 -60 -172 -48 -85 -60 -116 -57 -143 l3
-34 -25 31 c-14 16 -39 52 -56 79 -16 26 -42 65 -59 86 -30 37 -177 157 -193
157 -5 0 -24 16 -43 35 -42 43 -69 48 -43 8 l18 -28 -35 21 c-30 18 -35 26
-33 55 1 25 10 42 37 65 53 46 46 62 -9 23z m72 -195 c21 -14 40 -28 43 -31 9
-10 -54 25 -75 41 -33 25 -9 18 32 -10z m-24 -35 c74 -50 125 -95 209 -186 34
-38 67 -70 72 -72 26 -11 81 -95 71 -110 -3 -5 -24 -19 -48 -30 -49 -24 -142
-114 -187 -181 -17 -25 -41 -60 -55 -79 -14 -19 -25 -44 -25 -57 0 -26 -18
-71 -37 -94 -7 -9 -19 -36 -28 -59 -8 -24 -39 -74 -68 -110 -84 -104 -89 -113
-81 -162 6 -43 26 -71 69 -98 14 -8 15 -11 3 -7 -9 2 -22 -2 -28 -10 -52 -62
-124 73 -118 222 l3 79 19 -58 c19 -56 36 -74 36 -38 0 10 -6 37 -14 59 -8 23
-20 76 -26 118 -10 72 -9 80 14 128 13 28 31 60 40 71 15 19 15 18 16 -27 0
-48 33 -152 51 -164 21 -13 21 8 0 71 -13 42 -21 88 -20 128 1 34 3 53 6 42
10 -46 27 -77 55 -96 16 -12 32 -19 35 -16 3 3 5 44 5 90 0 90 -11 125 -55
165 -20 19 -24 29 -18 50 5 15 4 63 -1 107 -11 90 -6 344 6 364 10 16 22 11
99 -40z m627 -398 c23 -11 23 -11 -9 -6 -18 3 -69 5 -112 5 -52 0 -79 4 -79
11 0 15 164 6 200 -10z m-240 -11 c13 -8 13 -10 -2 -10 -9 0 -23 -3 -32 -6 -9
-3 -16 -1 -16 6 0 6 5 8 10 5 6 -3 10 -1 10 4 0 13 10 14 30 1z m100 -21 c-36
-10 -82 -26 -103 -35 -40 -18 -65 -11 -32 9 37 22 120 46 160 46 38 -1 37 -1
-25 -20z m-165 -19 c-5 -8 -11 -8 -17 -2 -6 6 -7 16 -3 22 5 8 11 8 17 2 6 -6
7 -16 3 -22z m-32 -7 c9 -8 -32 -53 -49 -53 -7 0 -16 5 -20 11 -4 8 1 9 16 4
15 -5 20 -4 16 4 -4 6 -1 17 6 25 15 17 22 19 31 9z m24 -58 c-4 -8 -11 -15
-17 -15 -14 0 -13 27 3 33 16 6 21 1 14 -18z m-36 -28 c-1 -12 -15 -9 -19 4
-3 6 1 10 8 8 6 -3 11 -8 11 -12z m-31 -47 c0 -22 -31 -70 -44 -70 -12 0 -12
7 1 40 14 36 43 56 43 30z m-320 -75 c0 -5 -5 -3 -10 5 -5 8 -10 20 -10 25 0
6 5 3 10 -5 5 -8 10 -19 10 -25z m246 -468 c2 -7 0 -24 -5 -38 -9 -23 -10 -23
-10 -2 -1 12 -4 28 -7 37 -3 9 -1 16 5 16 7 0 14 -6 17 -13z m38 -3 c9 -3 16
-13 16 -21 0 -23 -42 -113 -52 -113 -6 0 -7 8 -3 18 4 9 10 41 13 70 2 28 6
52 7 52 2 0 10 -3 19 -6z m-77 -106 c-3 -8 -6 -5 -6 6 -1 11 2 17 5 13 3 -3 4
-12 1 -19z m133 -52 c0 -3 -4 -8 -10 -11 -5 -3 -10 -1 -10 4 0 6 5 11 10 11 6
0 10 -2 10 -4z"/>
<path d="M1323 1303 c6 -95 31 -173 49 -155 8 8 5 25 -10 61 -15 33 -20 59
-16 80 8 38 -3 101 -18 101 -7 0 -9 -29 -5 -87z"/>
<path d="M2043 1833 c-21 -8 -15 -22 7 -16 11 3 20 9 20 14 0 10 -8 10 -27 2z"/>
<path d="M1982 1785 c-12 -14 -18 -25 -13 -25 11 0 45 39 39 45 -2 3 -14 -6
-26 -20z"/>
<path d="M2037 1724 c-16 -9 -27 -18 -24 -20 7 -7 57 18 57 28 0 10 1 10 -33
-8z"/>
<path d="M1834 1695 c-21 -19 -34 -35 -28 -35 13 1 90 70 77 70 -6 0 -28 -16
-49 -35z"/>
<path d="M1924 1536 c-27 -19 -73 -49 -102 -67 -29 -17 -51 -34 -48 -36 6 -7
91 42 133 76 17 14 42 34 55 43 13 9 20 17 17 18 -4 0 -29 -16 -55 -34z"/>
<path d="M1866 1395 c-54 -36 -102 -65 -106 -65 -5 0 -12 -4 -15 -10 -9 -15
26 0 61 26 17 12 53 35 80 50 56 31 101 64 87 64 -5 0 -53 -29 -107 -65z"/>
<path d="M1909 1358 c-61 -58 -58 -60 7 -4 17 14 39 33 50 40 10 8 16 17 13
20 -3 3 -34 -22 -70 -56z"/>
<path d="M2085 1110 c-3 -5 -1 -10 4 -10 6 0 11 5 11 10 0 6 -2 10 -4 10 -3 0
-8 -4 -11 -10z"/>
<path d="M1955 1060 c-3 -5 1 -10 9 -10 9 0 16 5 16 10 0 6 -4 10 -9 10 -6 0
-13 -4 -16 -10z"/>
<path d="M2040 1059 c0 -5 5 -7 10 -4 6 3 10 8 10 11 0 2 -4 4 -10 4 -5 0 -10
-5 -10 -11z"/>
<path d="M1882 1031 c-8 -5 -11 -17 -7 -33 4 -15 2 -29 -4 -32 -6 -4 -11 0
-11 8 0 34 -18 23 -22 -13 -3 -37 -2 -38 17 -25 11 8 35 15 55 15 23 1 27 3
13 6 -24 5 -40 41 -29 68 6 17 6 18 -12 6z"/>
<path d="M1930 1017 c0 -20 -16 -23 -23 -4 -3 6 -6 2 -6 -10 -1 -27 14 -30 36
-7 12 11 13 18 4 27 -8 8 -11 7 -11 -6z"/>
<path d="M1854 888 l-19 -23 23 19 c21 18 27 26 19 26 -2 0 -12 -10 -23 -22z"/>
<path d="M2023 896 c4 -10 7 -22 7 -27 0 -5 14 -9 30 -9 17 0 30 4 30 10 0 5
-7 7 -15 4 -9 -4 -15 0 -15 7 0 11 -3 11 -10 -1 -8 -13 -10 -13 -10 2 0 9 -5
20 -12 24 -8 5 -9 2 -5 -10z"/>
<path d="M845 880 c-10 -11 -14 -20 -9 -20 5 0 15 9 22 20 7 11 11 20 9 20 -2
0 -12 -9 -22 -20z"/>
<path d="M1955 886 c-17 -12 -16 -14 18 -18 31 -3 37 -1 37 14 0 22 -28 24
-55 4z"/>
<path d="M1908 863 c7 -3 16 -2 19 1 4 3 -2 6 -13 5 -11 0 -14 -3 -6 -6z"/>
<path d="M759 830 c-31 -26 -15 -26 18 0 14 11 21 20 15 20 -5 0 -20 -9 -33
-20z"/>
<path d="M1916 683 c-3 -10 -9 -24 -12 -30 -11 -24 24 -13 40 12 20 31 20 35
-3 35 -10 0 -21 -8 -25 -17z"/>
<path d="M762 660 c-19 -18 -29 -36 -26 -45 4 -8 8 -15 11 -15 8 0 47 51 55
72 11 27 -5 22 -40 -12z"/>
<path d="M2015 670 c-16 -10 -33 -15 -37 -13 -5 2 -13 1 -19 -3 -20 -12 11
-22 47 -14 26 6 34 5 34 -6 0 -8 5 -14 10 -14 11 0 11 14 2 46 -7 20 -8 20
-37 4z"/>
<path d="M1285 663 c-5 -12 -9 -14 -12 -5 -3 6 -9 12 -14 12 -5 0 -3 -13 6
-30 19 -37 31 -38 39 -4 8 32 -8 54 -19 27z"/>
<path d="M1334 605 c-9 -22 1 -29 15 -11 8 10 9 16 1 21 -5 3 -13 -1 -16 -10z"/>
</g>
</svg>
